<svg version="1.1" id="Layer_1" xmlns="http://www.w3.org/2000/svg" xmlns:xlink="http://www.w3.org/1999/xlink" x="0px" y="0px" style="enable-background:new 0 0 240 324;" xml:space="preserve" viewBox="38.72 47.58 163.08 237.63">
<style type="text/css">
	.st0{fill-rule:evenodd;clip-rule:evenodd;fill:#FFFFFF;}
	.st1{fill-rule:evenodd;clip-rule:evenodd;}
</style>
<g id="head_x2F_mono_x2F_Bangs-2">
	<path id="_xD83C__xDFA8_-Background_00000036971409370199229440000012501091091310927038_" class="st0" d="M165.5,70.7   c-12.5-8.3-37.4-7.4-51.2-2.3C100.9,72.7,96.2,84.5,94,97.3c-2.7,14.4-2.3,35.1,17.1,34.8c2.7,1.3,5.8,1.9,8.6,3   c3.9,1.3,7.7,2.9,11.6,4.1c7.7,2.5,16.3,2.3,23.7-1.4c4.1-2,5.7-5,8.4-8.3c7.7-9.5,11.6-23,11.2-35C174,86.1,172.6,76.3,165.5,70.7   z"/>
	<path id="_xD83D__xDD8D_-Ink_00000037663513834870144880000016130060792140223167_" class="st1" d="M181.2,105.6   c-1.3-7.9-1.6-16-3.3-23.9c-1.6-7.4-4.5-14.4-9.7-20.1c-4.6-5.1-10.6-8.8-17-11.1c-12.5-4.6-26.8-3.5-38.8,1.8   c-11.3,5-20.3,14.3-25.5,25.4c-3.4,7.2-5.1,14.9-5.9,22.8c-0.8,8.8-0.9,17.7-1.3,26.5c0,1.1-0.1,2.2-0.1,3.3c0,1.2,0.5,2.2,0.9,3.4   c0,0.1,0.1,0.2,0.1,0.2c-0.3,0-0.6,0.1-0.9,0.1c-0.3,0.1-0.3,0.6,0,0.7c2.7,0.5,5.4,0.6,8.2,0.8c2.8,0.1,5.7,0.2,8.5,0.3   c2.8,0.1,5.5,0.2,8.3,0.3c1.5,0,2.9,0.1,4.4,0.1c0.7,0,1.4,0,2.1,0.1c0.3,0,0.7,0,1,0c0.3,0,0.7,0.2,0.8,0c0.1,0,0.1,0.1,0.2,0.1   c0.1,0,0.1,0.1,0.2,0.1c0.3,0.2,0.9,0.2,1.2,0c0,0,0.1,0,0.1-0.1c0.3-0.2,0.4-0.4,0.5-0.6c1.4,1.7,3.9-0.2,2.5-2   c-0.8-1-8.5-24.9-5.3-43.1l12.9-1.7c1.6-0.2,3.8-0.4,6.7-0.7c0.7-2.3,1.2-3.9,1.4-4.6c0-0.1,0-0.2,0.1-0.3c0.3,0.5,0.6,1.1,0.9,1.6   l1.6,3.2c15.6-0.3,25.4-0.4,29.2-0.4c0.1,0,0.6,7,0.4,10.1c-0.4,6.2-0.9,12.4-1.5,18.5c-0.4,3.9-1.4,7.8-2.8,11.5   c-2.3,5.7-8.8,11.2-15.3,11.2c-4,0-13-3.2-14.3-3.9c-1.3-0.7-2.1,1.1-0.9,1.8c2.4,1.4,9.1,4.5,15.2,4.5c8.9,0,15.6-8.4,16.4-9.6   c8.1-0.4,16.4-0.2,24.5,0.6c0.7,0.1,1.3-0.8,1-1.4C184.8,122.8,182.6,114.3,181.2,105.6z"/>
</g>
<desc>Created with Sketch.</desc>
<g id="Introduction">
	<g id="variations" transform="translate(-2286.000000, -1082.000000)">
		<g id="images" transform="translate(126.000000, 110.000000)">
			<g id="a-person_x2F_bust" transform="translate(2160.000000, 972.000000)">
				<g id="body_x2F_Paper" transform="translate(31.056338, 135.052838)">
					<path id="_xD83C__xDFA8_-Background" class="st0" d="M150,41.5c-1.8-7.1-3.5-10.2-6.8-12.7c-3.1-2.3-7.5-4.3-14-5.7       c-6.8-1.2-7-4.7-8.7-10.4c-0.5-1.7-3-2.2-4-0.9c-0.1-0.2-0.3-0.3-0.5-0.4c0.1-0.8-1-3.1-1-3.9c0.4-8.1-2.2-12.2-8.9-13.7       c-1.4-0.3-11.2-0.5-12.6-0.1C87.4-4.6,81.3,0.8,82.2,7.3c-1.9,2.5-3.8,4.1-6.8,4.9c-6.6,0.8-13.2,1.6-19.9,2.2       c-13,2-25.1,8.9-33.4,18.9c-0.8,0.9-1,2.2-0.3,3.2c-0.5,2.3-3.5,7.8-1.2,9.3C16.8,55,8,72.8,7.9,77.9       c-0.1,21.4,2.2,49.3,23.4,61.1c0.8,0.8,1,1.8,1.3,3c0.9,3.9,4.3,6.7,8,6.5c18.2,0.4,35.8-1.8,54-1.9c8,0,17.7,1.1,24.6,1.9       s14,0.1,20.7-1.9c0.6,0.9,1.7,1.4,2.9,1.1c6.9-1.4,12.5-5.6,17.4-10.3c1.5-2.7,7.3-10.4,5-13.1c2.1-8.9,2-18.4-1.7-26.9       c0.5-1.5-0.4-3.3,0-4.9c0.3-1.2,1.1-1.6,1.5-2.8c0.6-1.6,0-3.8-0.7-5.4c-0.3-0.8,0.5-1.7,0.7-2.5c1-3.9-1.3-3.6-2.9-6.2       c0,0,0.4-1.9,0.4-1.9c0.2-1.3-0.4-3.1-0.9-4.2c-0.4-0.8-1.2-1.2-1.9-1.1c0.8-2.7,1.8-4.9,2.9-7.5c1.9-4.6,4.3-8.9,7-13       c1.1-1.7-0.4-3.6-2.2-3.8C161.5,43.7,155.7,42.8,150,41.5z"/>
					<path id="_xD83D__xDD8D_-Ink" class="st1" d="M133,76c-2.3-0.9-4.9-1.4-7.4-1.6c1.4-0.2,2.7-0.5,4.1-0.6c1-0.1,1.9-0.1,2.6,0.7       c0.5,0.5,0.7,1.1,1,1.7C133.2,76.1,133.1,76,133,76z M158.1,67.4c-3.8,0.2-7.7,1.1-11.1,2.8c-1.4,0.7-2.7,1.7-3.1,3.3       c-0.2,0.8-0.1,1.7,0,2.5c0.1,0.6,0.1,1.4,0.6,1.9c0.1,0.1,0.2,0.1,0.3,0.2c-1.3,0.6-2.5,1.3-3.6,2c-1,0.7-2,1.7-2.5,2.8       c0-0.1-0.1-0.2-0.1-0.4c-0.8-2.3-2-4.2-3.9-5.4c0.3-0.1,0.6-0.5,0.5-1c-0.4-2-2.3-3.8-4.5-3.7c-2.3,0.1-4.9,1-7,2.1       c-0.8,0-1.5,0-2.3,0c-0.1,0-0.1,0.2,0,0.2c0.6,0.1,1.2,0.2,1.9,0.3c1.5,0.2,2.9,0.5,4.4,0.9c1.7,0.4,3.5,0.9,5.1,1.7       c3.1,1.5,5,5.4,4.6,8.9c-0.1,0.6-0.3,2.3-1.1,2.1c-0.7-0.1-0.9-1.5-1.2-2c-0.6-1.4-1.7-2.2-3.1-2.8c-1.6-0.7-3.2-1.2-4.9-1.7       c-0.9-0.3-1.8-0.6-2.8-0.9c-0.9-0.3-1.8-0.8-2.8-0.5c-0.6,0.1-0.7,0.9-0.3,1.3c0.5,0.6,1.3,0.8,2,1.1c1,0.3,2,0.7,2.9,1       c1.5,0.5,3.1,1,4.6,1.6l0,0.1c-0.1,0-0.3,0.1-0.2,0.2c0.2,1.4,0.5,2.9,0.2,4.3c-0.3,1.1-1.2,2.3-2.5,2c0.2-0.2,0.3-0.5,0.1-0.8       c-0.5-1-6.9-5.2-7.5-3.6c0,0.1,0,0.1,0.1,0.1c0.5-0.1,1.3,0.7,1.7,1c0.6,0.4,1.1,0.8,1.7,1.1c0.6,0.4,1.2,0.9,1.8,1.3       c0.5,0.4,0.8,0.7,1.3,0.9c-0.3,0.1-0.5,0.4-0.6,0.7c-0.2,0.8-0.7,1.5-1.5,1.9c-0.8,0.4-1.8,0.1-2.6,0.2       c-1.2,0.1-2.2,0.7-3.1,1.5c-1.8,1.7-2.7,4.7-5.3,5.5c-1.5,0.5-3.2,0.2-4.8,0c-1.7-0.2-3.4-0.4-5.1-0.2       c-1.7,0.2-3.2,0.8-4.7,1.5c-1.4,0.7-3,1.4-4.3,2.4c-0.3-0.8-0.5-1.6-0.7-2.4c-0.5-1.9-0.7-3.9-0.8-5.9c-0.1-1.9,0-3.8,0.2-5.7       c0.1-0.9,0.2-1.9,0.3-2.8c0-0.2,0.1-0.5,0.1-0.7c2.3-1.3,4.6-2.3,7-3.4c0,0,0,0,0,0c0.1,0,0.1-0.1,0.2-0.1c0,0,0,0,0,0       c0.3-0.2,0.5-0.4,0.6-0.6c3.4-2.3,6.3-5.4,8.5-9c0.9-1.5,1.8-3.1,2.9-4.4c1.3-1.4,2.7-2.3,4.6-2.7c2.1-0.5,4.4-0.8,6.6-1       c1.2-0.1,2.5-0.2,3.9-0.2c0.9,0,1.8,0.1,2.6,0.3c1.2,0.3,1.9,1.3,2.7,2.2c0.7,0.9,1.5,1.8,2.1,2.7c0.6,0.9,1.3,1.8,1.8,2.8       c0.3,0.6,0.6,1.2,0.9,1.8c0.1,0.2,0.2,0.5,0.3,0.7c0.1,0.2,0,0.5,0.2,0.5c-1,0-1,1.7,0,1.6c4.1-0.2-1.8-8.2-2.6-9.3       c-1.2-1.6-2.5-3.6-4.4-4.3c0,0-0.1,0-0.1,0c0.6-0.5,1-1.2,1.4-1.8c0.4-0.7,1-1.4,1.1-2.2c0.1-0.5-0.5-0.8-0.8-0.4       c-0.4,0.6-0.6,1.5-1,2.2c-0.3,0.7-0.7,1.4-1,2.1c-0.8-0.2-1.6-0.3-2.4-0.4c1.1-1.4,2.9-4.2,3.1-4.6c1-1.6,2-3.3,2.9-5       c1-1.8,1.8-3.8,2.8-5.6c0.5-1.1,1.1-2.1,1.7-3.1c0.2-0.4,0.4-0.7,0.7-1c0-0.1,0.1-0.1,0.2-0.2c0.1,0,0.1-0.1,0.2-0.1       c0.3-0.2,0.5-0.7,0.7-0.9c0.4-0.5,0.8-0.5,1.4-0.5c1.2,0,2.5,0,3.7,0.1c1.8,0.1,3.6,0.1,5.4,0.2c0.5,0,1.1,0.1,1.6,0.1       c2.6,0.2,5.3,0.4,7.9,0.6c2.3,0.2,4.6,0.6,7,0.8c-3.1,7.5-6.6,14.8-10.6,21.9C158.1,67.2,158.1,67.3,158.1,67.4z M140.6,86.6       c-0.5,0.2-1,0.5-1.5,0.9c0.1-0.5,0.1-1.1,0.1-1.6C139.6,86.3,140.1,86.5,140.6,86.6z M162.3,73.8       C162.2,73.8,162.2,73.8,162.3,73.8c-0.8,1.5-0.5,3.1,0.7,4.3c0.6,0.6,1.9,1.3,1.9,2.2c0,0.8-0.9,1.4-1.3,2.1       c-0.3,0.6-0.5,1.3-0.2,1.9c0.3,0.8,1.3,1.2,1.7,2c0.4,1-0.3,2.3-0.7,3.2c-0.4,0.8-1,1.7-1.4,2.6c-2.6,1.3-4.9,3.4-6.9,5.5       c-2.2,2.3-4,4.9-7.5,4.9c-0.3,0-0.6,0.2-0.8,0.4c-1,0-1.9,0.1-2.9,0.1c-1.7,0-3.4,0-5.1-0.1c-0.1-0.4,0-1,0-1.3       c0-1.1,0-2.2-0.1-3.3c0-0.3,0-0.6,0-0.9c0.6,1.1,1.8,1.6,3.1,1.5c2.2-0.1,4.3-0.5,6.5-0.8c1.1-0.2,2.3-0.4,3.4-0.6       c0.9-0.2,2.2-0.1,2.9-0.9c0.2-0.2,0.2-0.5-0.1-0.6c-0.6-0.3-1-0.1-1.7,0c-0.9,0.2-1.7,0.3-2.6,0.5c-1.7,0.3-3.3,0.6-5,0.8       c-0.9,0.1-1.9,0.3-2.8,0.4c-0.8,0.1-1.8,0.2-2.4-0.4c-1.3-1.3-0.6-3.4,0.3-4.6c0,0,0,0,0-0.1c0.8-0.2,1.6-0.4,2.4-0.6       c1.5-0.3,3.1-0.5,4.6-0.8c3.2-0.5,6.4-0.8,9.6-1.1c0.8-0.1,0.8-1.3,0-1.2c-4.6,0.4-9.2,0.8-13.7,1.7c-1.1,0.2-2.3,0.5-3.4,0.8       c-0.5,0.1-1.1,0.3-1.7,0.3c0,0-0.1,0-0.1,0c-1.1,0-1.2-1-0.6-1.7c0.1-0.1,0.1-0.2,0.2-0.3c1.1-1.3,2.4-2.1,3.7-3       c1.5-0.2,3-0.7,4.5-1c3.7-0.8,7.3-1.7,11-2.5c0.7-0.2,0.4-1.3-0.3-1.1c-2.8,0.6-5.6,1.3-8.4,1.9l-4.1,0.9       c-0.8,0.2-1.8,0.6-2.8,0.7c-0.5,0.1-0.9,0.1-1.3,0c-1.3-0.3-1.4-2-0.8-3c0.6-1.1,1.9-1.8,3-2.4c1.9-1.1,3.9-1.9,5.8-2.8       c0.3-0.1,0.7-0.2,1-0.2c2-0.4,4.3-0.7,6.2-1.5c0.6-0.2,0.3-1.1-0.3-1.1c-1.5,0-3,0.6-4.5,0.9c-1.6,0.3-3.1,0.7-4.7,1       c-0.2,0-1.1,0.3-1.2,0.3c-0.1,0-0.1-0.4-0.1-0.6c-0.1-0.7-0.2-1.4-0.1-2c0.2-1.5,1.5-2.2,2.7-2.8c2.8-1.3,5.9-2.1,9-2.4       c0.7-0.1,1.4-0.1,2.1-0.1c0.8,0,1.5-0.2,2,0.7C161.7,70.6,162,72.3,162.3,73.8z M158.3,121c-0.6-2.1-0.4-4.4-0.9-6.6       c-0.2-1.1-0.5-2.2-0.8-3.3c-0.3-0.9-0.7-1.8-0.7-2.7c0-0.1,0.1-0.1,0.1-0.1c0.9,0.5,1.5,1.6,2,2.4c0.6,1,1,2.1,1.4,3.2       c0.7,2.2,1.3,4.9,0.4,7.1C159.6,121.7,158.6,121.8,158.3,121z M139.3,92.8c0.5-0.1,1-0.2,1.6-0.3c-0.6,0.6-1.1,1.2-1.4,2       C139.4,94,139.4,93.4,139.3,92.8C139.3,92.8,139.3,92.8,139.3,92.8z M134.3,137.1c-0.9-0.6-1.6-1.5-2.4-2.3       c-0.8-0.8,0.4-2,1.2-1.2c0.7,0.7,1.2,1.5,2,2.1c0.4,0.3,0.5,0.7,0.3,1.2C135.3,137.2,134.7,137.4,134.3,137.1z M129.2,112.5       c1.7-0.7,3.3-1.5,5.1-2c1-0.3,1.5,1.3,0.4,1.6c-1.6,0.5-3.1,1.2-4.7,1.9C129.1,114.4,128.2,112.9,129.2,112.5z M111.6,112       c-0.4-1,1.2-1.4,1.6-0.4c0.5,1.1,1,2.3,1.5,3.4c0.4,1-1.2,1.4-1.6,0.4C112.6,114.3,112,113.1,111.6,112z M94.1,132.2       c-0.3,0.4-0.7,0.6-1.2,0.3c-0.4-0.2-0.6-0.8-0.3-1.2c0.8-1.1,1.6-2.1,2.6-3.1c0.8-0.8,2,0.4,1.2,1.2       C95.6,130.3,94.8,131.2,94.1,132.2z M91.6,19c0.8,0.5,1.5,1.2,2.1,1.8c0.8,0.8-0.4,2-1.2,1.2c-0.6-0.6-1.1-1.1-1.8-1.6       c-0.4-0.3-0.5-0.7-0.3-1.2C90.7,18.9,91.3,18.8,91.6,19z M117,46.2c-0.4,0.9-0.8,1.7-0.9,2.7c0,1.1-1.7,1.1-1.7,0       c0-1.3,0.5-2.4,1.1-3.6C116,44.4,117.5,45.2,117,46.2z M126.3,24.4c0.9-0.6,1.8,0.9,0.9,1.5c-0.7,0.5-1.5,1-2.2,1.5       c-0.9,0.6-1.8-0.9-0.9-1.5C124.8,25.3,125.6,24.9,126.3,24.4z M85.9,62.6c-0.2,1.1-1.8,0.6-1.6-0.4c0.2-1.6,0.5-3.3,1-4.9       c0.3-1,1.9-0.6,1.6,0.4C86.5,59.3,86.2,60.9,85.9,62.6z M80,81.9c-1.1,0-1.1-1.7,0-1.7c1,0,2,0.3,2.9,0.5       c1.1,0.3,0.6,1.9-0.4,1.6C81.7,82.2,80.8,82,80,81.9z M77.8,121c-0.4,0.2-0.8,0.3-1.1,0.5c-0.8,0.3-1.5,0.7-2.3,1       c-1.6,0.7-3.1,1.4-4.7,2.2c-3.1,1.5-6.3,2.9-9.5,4.3c-3.2,1.5-6.4,3-9.6,4.5c-1.5,0.7-3,1.4-4.6,2.1c-1.3,0.6-2.9,1.6-4.3,1.7       c-0.1,0-0.1-0.1-0.1-0.1c0.5-0.6,1.4-1,2.1-1.4c0.7-0.4,1.5-0.8,2.2-1.2c1.5-0.8,3.1-1.6,4.6-2.4c3.1-1.6,6.2-3.1,9.3-4.7       c3.2-1.6,6.3-3.2,9.5-4.7c1.5-0.7,3-1.4,4.5-2.1c0.8-0.4,1.6-0.8,2.4-1.2c0.4-0.2,0.7-0.3,1.1-0.5c0.5-0.2,0.8-0.2,1.3-0.3       c0.8-0.2,1.2,0.8,0.5,1.3C78.7,120.4,78.4,120.7,77.8,121z M66.5,138.3c-0.2-0.4,0.2-0.9,0.6-1c0.5-0.1,0.9,0.2,1,0.6       c0.5,1.1,1.1,2.2,2,3c0.8,0.8-0.4,2-1.2,1.2C67.9,141,67.1,139.7,66.5,138.3z M58.2,111.2c-0.8-0.8,0.4-2,1.2-1.2l2.2,2.2       c0.8,0.8-0.4,2-1.2,1.2L58.2,111.2z M35.8,107.6c-1.6,0.5-3.4,0.9-4.5,2.2c-0.1,0.1-0.1,0-0.1-0.1c1.4-2.9,5.3-3.9,8-4.8       c1.9-0.7,3.9-1.3,5.9-1.8c-0.2-2.3,0.4-4.7,0.5-7c0.2-2.4,0.4-4.8,0.5-7.3c0.1-2.5,0.1-5,0-7.5c-0.1-2.5-0.4-4.9-0.5-7.4       c0-0.2,0.3-0.2,0.4-0.1c0.8,2.3,1.2,4.8,1.5,7.2c0.3,2.5,0.4,5,0.3,7.5c0,2.6-0.2,5.1-0.4,7.7c-0.1,1.2-0.2,2.4-0.3,3.6       c-0.1,0.9-0.1,1.8-0.3,2.7c1.2-0.3,2.4-0.6,3.6-0.8c3.8-0.9,7.7-1.7,11.5-2.6c1.9-0.5,3.7-1,5.6-1.5c1.8-0.5,3.6-1,5.4-1.2       c0.6-0.1,0.7,0.8,0.3,1.1c-1.5,1-3.4,1.7-5.1,2.3c-1.7,0.6-3.5,1-5.2,1.4c-3.6,0.9-7.3,1.6-11,2.4c-3.7,0.8-7.3,1.5-10.9,2.5       C39.2,106.6,37.5,107.1,35.8,107.6z M27.1,62.3c-0.9,0.6-1.8-0.9-0.9-1.5c1.2-0.7,2.5-1.3,3.9-1.8c1-0.4,1.4,1.2,0.4,1.6       C29.4,61.2,28.2,61.7,27.1,62.3z M23.7,125.2c-0.9,0.5-1.8-0.9-0.9-1.5c1.3-0.8,2.8-1.3,4.1-1.9c1-0.5,1.8,1,0.9,1.5       C26.5,123.9,25,124.4,23.7,125.2z M22.2,89.5c0.9,0.9,2.1,1.3,3.3,1.7c1,0.4,0.6,2-0.4,1.6c-1.4-0.6-2.9-1.1-4-2.2       C20.2,90,21.4,88.8,22.2,89.5z M32.3,41.1c1,0.4,0.6,2-0.4,1.6c-1.1-0.4-2.3-0.8-3.4-1.2c-1-0.4-0.6-2,0.4-1.6       C30,40.3,31.2,40.6,32.3,41.1z M50.1,21.8c1.1-0.2,1.5,1.4,0.4,1.6c-1.3,0.2-2.6,0.5-3.9,1c-1,0.4-1.5-1.2-0.4-1.6       C47.5,22.3,48.8,22.1,50.1,21.8z M56,68.7c-1-0.5-0.1-1.9,0.9-1.5c1,0.5,2.1,0.9,3.2,1.1c1.1,0.2,0.6,1.9-0.4,1.6       C58.3,69.7,57.1,69.2,56,68.7z M61.5,42.3c1.1-0.3,1.5,1.3,0.4,1.6c-1.8,0.5-3.7,0.8-5.6,1.2c-1.1,0.3-1.5-1.4-0.4-1.6       C57.8,43.1,59.7,42.8,61.5,42.3z M85.1,34c1.1,0.2,0.6,1.8-0.4,1.6c-1.1-0.2-2.3-0.2-3.4-0.2c-1.1,0-1.1-1.7,0-1.7       C82.5,33.7,83.8,33.8,85.1,34z M162,42.9c-2.8-0.3-5.5-0.5-8.3-0.6c-0.1,0-0.3,0-0.4,0c0,0,0-0.1-0.1-0.1       c-0.9-1.3-1.6-2.7-2.1-4.2c-0.6-1.4-1.1-2.9-1.9-4.2c-1-1.5-2.3-2.6-3.7-3.6c-0.9,0.6-1.7,1.3-2.4,2c-0.8,0.8-2-0.4-1.2-1.2       c0.7-0.6,1.4-1.2,2.1-1.8c-0.9-0.5-1.7-1-2.6-1.5c-3.2-1.8-6.5-3.5-9.8-5c-1.5-0.7-3.1-1.4-4.7-2c-0.8-0.3-1.7-0.8-2.5-1.2       c0.1-0.6-0.1-1.3-0.6-1.7c-0.3-0.3-0.6-0.4-1-0.6c-0.1,0-0.1-0.1-0.2-0.1c0,0,0.1,0,0.2,0.1c0.2,0.1,0.2,0.1,0.1-0.1       c0-0.3-0.7-1.1-0.8-1.4c-0.5-1.2-0.7-2.5-1.5-3.6c-1.1-1.5-2.9-2.1-4.6-1.6c-0.2-1.8-0.2-3.7-0.9-5.4c0,0-0.1-0.1-0.1,0       c-0.7,1.2-0.8,2.6-0.8,4c-0.1,1.3,0,2.7,0.2,4c-0.1,0.1-0.2,0.2-0.3,0.2c-0.5,0.4-1.1,0.6-1.7,0.8c-1.2,0.4-2.4,0.6-3.6,0.6       c-3.2,0.2-6.5-0.2-9.6-0.7c-3.2-0.6-8-1.4-10.8-3c-1.9-1-3.6-2.3-5.3-3.6c0.6-2,0.8-4.2,0.2-5.9c-0.1-0.2-0.4-0.2-0.5,0       c-0.4,1.6-0.5,3.3-1,4.9c0,0,0,0,0,0.1c-0.2-0.1-0.3-0.2-0.5-0.3c-0.4-0.3-0.9-0.1-1.1,0.3c-3.6,5.8-9.4,6.1-15.5,7.1       c-6.6,1.1-13.3,2.3-19.7,4.5C38.4,20.3,32.6,23.4,28,28c-1,1-2,2.1-2.9,3.3c0.9,0.1,1.8,0.3,2.7,0.6c1,0.3,0.6,2-0.4,1.6       c-1.1-0.4-2.3-0.5-3.4-0.6c-3.1,4.3-5.6,9.2-7.7,14c-4.1,9.2-6.7,19-7.9,29c0.7-0.4,1.3-0.8,2-1.1c1-0.5,1.8,1,0.9,1.5       c-1.1,0.5-2.1,1.2-3.1,1.8c-0.4,4.4-0.6,8.8-0.5,13.1c0.2,10.5,1.7,21.2,4.9,31.2c1.6,4.9,3.6,9.8,6.7,13.9       c1.4,1.9,3,3.6,4.9,5c0.9,0.7,1.9,1.3,2.9,1.8c1.3,0.7,3,0.9,4.1,1.8c0.4,0.3,0.7,0.7,0.9,1.2c-0.1,0.9-0.1,1.8,0.1,2.6       c0.1,0.3,0.3,0.5,0.5,0.6c0,0.1,0,0.2,0,0.2c0,0,0.1,0,0.1,0c0-0.1,0-0.1,0-0.2c0.1,0,0.2,0,0.3,0c3.2,0,6.4-0.1,9.6-0.2       c-0.2-0.8-0.5-1.5-0.8-2.3c-0.4-1,1.3-1.5,1.6-0.4c0.3,0.9,0.6,1.8,0.9,2.7c3.4-0.1,6.9-0.3,10.3-0.4       c7.3-0.2,14.6-0.3,21.9-0.5c11.4-0.2,22.8-0.7,34.2-0.3c0.4-0.8,0.8-1.7,1.3-2.5c0.5-1,1.9-0.1,1.5,0.9       c-0.3,0.6-0.6,1.1-0.9,1.7c2.3,0.1,4.6,0.3,6.9,0.5c3.9,0.4,7.8,1,11.7,1.4c4,0.4,7.9,0.3,11.8-0.3c0.7-0.1,1.1-0.5,1.3-1.1       c0,0,0,0,0,0c0.2-0.2,0.4-0.4,0.6-0.6c0.2-0.2,0.5-0.3,0.8-0.4c0.6-0.2,1.1-0.3,1.7-0.4c0.6-0.1,1.3-0.1,1.9-0.2       c0.5-0.1,1.1-0.2,1.6-0.3c1-0.2,1.9-0.5,2.8-0.9c0.8-0.3,1.5-0.8,2.2-1.4c1.4-1,2.6-2.3,3.6-3.7c0.6-0.8,1.2-1.6,1.7-2.5       c0.9-1.5,1.7-3,2.5-4.6c0.3-0.5,0.5-0.9,0.8-1.4c-1.5-0.5-3.1-0.8-4.7-0.8c-1.1,0-1.1-1.7,0-1.7c1.9,0,3.6,0.5,5.4,1       c0.1-0.2,0.2-0.5,0.2-0.7c0.2-0.5,0.4-1,0.5-1.5c0.1-0.2,0.2-0.5,0.3-0.7c0.2-0.8,0.4-1.6,0.6-2.4c0.4-1.3,0.7-2.6,0.9-3.9       c0.2-0.9,0.3-1.7,0.4-2.6c0.3-2.1,0.5-4.2,0.6-6.4c0-1.3-0.1-2.6-0.3-4c-0.1-0.9-0.2-1.8-0.3-2.7c-0.2-1.3-0.4-2.6-0.7-3.9       c-0.2-0.9-0.5-1.7-0.7-2.6c-0.6-1.8-1.2-3.6-2-5.4c0-0.1-0.3-0.4-0.4-0.4c-0.1,0-0.2,0.1-0.2,0.2c0,0,0,0,0,0       c0-0.1-0.1-0.2-0.1-0.3c0-0.1-0.2-0.3-0.3-0.3c0,0,0,0,0,0c0,0,0.1,0,0.1-0.1c0.8-0.9,1.3-2.1,1.8-3.1c0.4-0.9,0.9-1.8,1-2.7       c0.1-0.9,0-1.7-0.6-2.4c-0.6-0.8-1.8-1.2-1.1-2.3c0.7-1.3,1.8-2.4,0.7-3.9c-0.5-0.7-1.4-1.2-2-1.8c-0.7-0.8-1.1-1.8-1.1-2.8       c0,0,0.1,0,0.1-0.1c0.6-1.9,0.2-3.9-0.5-5.7c-0.3-1-1.1-1.2-1.9-1.3c3.7-7.1,7.1-14.4,10.1-21.8c0.1-0.2,0.2-0.5,0.3-0.7       c0.1-0.4-0.2-0.8-0.5-0.9C167.4,43.3,164.7,43.1,162,42.9z"/>
				</g>
				<g id="face_x2F_Smiling" transform="translate(112.183099, 77.354207)">
					<path id="_xD83D__xDD8D_-Ink_00000124874411882368704140000011039476136455330960_" class="st1" d="M31,50.9       c-1.4-0.6-2.7-1.5-3.6-2.8c-0.3-0.4-0.4-0.9-0.3-1.3c0.1-0.5,0.4-0.9,0.7-1.2c0.4-0.3,0.8-0.4,1.3-0.4c0.4,0.1,0.8,0.3,1.1,0.7       l0.1,0.1c0.6,0.7,1.3,1.4,2.1,1.8c0.8,0.4,1.7,0.6,2.6,0.5c1.7-0.2,2.9-1.1,4.2-2.4c0.2-0.2,0.3-0.3,0.5-0.5       c0.1-0.2,0.2-0.3,0.4-0.3c0.2-0.1,0.4-0.1,0.5,0c0.2,0.1,0.3,0.2,0.4,0.3c0.1,0.1,0.2,0.3,0.1,0.5c-0.1,1.3-0.8,2.5-1.8,3.4       c-1.1,1-2.5,1.7-3.9,2C33.9,51.7,32.4,51.5,31,50.9L31,50.9z M36.1,30.5c1.6,1,4,3.2,2.3,5.6c-2,2.1-4.9-0.3-6.4-1.4       c-1.3-0.9-2.8,1.3-1.6,2.3c10.4,7.7,14.6-6.3,6.4-7.7C36,29.2,35.7,30.2,36.1,30.5z M17.4,22.7c0.3-2.6,4.2-2.3,4,0.3       c-0.1,1.2-0.4,2.4-1,3.6c-0.8,1.7-2.9,0.9-3.1-0.6C17.2,24.4,17.3,23.5,17.4,22.7z M42.9,20.6c0.5-0.6,1.1-1,1.9-0.8       c2.5,0.7,1.8,4.3,0.9,6c-0.5,0.9-2,1.2-2.7,0.4c-1.1-1.4-1.7-4.1-0.2-5.4C42.8,20.8,42.8,20.7,42.9,20.6z M20.4,12l0.4-0.1       c1.2-0.2,2.8-0.4,3.6,0.6c0.5,0.5,0.6,1.5,0,2c-1.1,0.9-2.3,0.5-3.6,0.6c-1.1,0.1-2.1,0.2-3.1,0.5c-2.3,0.6-4.1,1.8-6.1,3.1       c-0.3,0.2-0.5-0.2-0.4-0.4c1.1-2.2,3.3-4,5.5-5.1C17.9,12.7,19.1,12.2,20.4,12z M40.6,11l0.3,0.1c3.3,0.7,7.6,2.1,9.2,5.3       c0.1,0.5,0,0.6-0.1,0.6l0,0c0,0.1-0.1,0.1-0.3,0.2c-0.1,0-0.1,0-0.2,0c-0.7-0.2-1.3-0.4-1.8-0.7l-0.6-0.3c-1-0.5-2-0.9-3.1-1.2       c-1.3-0.4-2.6-0.6-3.9-0.8c-0.4,0-0.7-0.2-1-0.4c-0.3-0.2-0.5-0.5-0.5-0.8c-0.1-0.5-0.1-0.8,0.2-1.2c0.2-0.3,0.5-0.5,0.8-0.7       C39.9,11,40.2,11,40.6,11z"/>
				</g>
				<g id="facial-hair_x2F__x2A_-None" transform="translate(104.577451, 109.479380)">
				</g>
				<g id="accessories_x2F__x2A_-None" transform="translate(88.521127, 88.978474)">
				</g>
			</g>
		</g>
	</g>
</g>
</svg>